<?xml version="1.0" encoding="utf-8"?>
<!-- Generator: Adobe Illustrator 19.2.1, SVG Export Plug-In . SVG Version: 6.00 Build 0)  -->
<svg version="1.1" id="Layer_1" xmlns="http://www.w3.org/2000/svg" xmlns:xlink="http://www.w3.org/1999/xlink" x="0px" y="0px"
	 viewBox="0 0 720 360" style="enable-background:new 0 0 720 360;" xml:space="preserve">
<style type="text/css">
	.st0{fill:none;stroke:#000000;stroke-miterlimit:10;}
	.st1{fill:none;}
	.st2{font-family:'Liquide';}
	.st3{font-size:32.2379px;}
	.st4{font-size:9.6714px;}
	.st5{letter-spacing:11;}
</style>
<rect x="102.7" y="213.6" width="505.8" height="16.5"/>
<path d="M565.9,206.5c0,5.1-70.6,10.7-134.4,10.7c-61.1,0-131.8-5-131.8-10.7c0-1.2,3.7-2.1,11-4c13.2-3.4,39.6-9.9,74.1-5.9
	c7.6,0.9,15.5,2.2,27.7,1.6c9.5-0.5,16.3-1.9,19-2.4c43.9-8.5,107.3,4.1,122.9,7.3C563.8,204.9,565.9,205.6,565.9,206.5z"/>
<path d="M407.1,201.2c-0.2,2-1.6,17.5-6.6,18.2c-4.3,0.6-10.9-10-10.7-19.8c0.2-8.5,5.6-14.8,6.3-15.5c0.9-1,2.1-2,2.1-2
	c0.7-0.6,1.1-0.9,1.5-1.1c0,0,1.6-0.9,3.7-0.3C406.3,181.5,408,190.8,407.1,201.2z"/>
<path d="M412.1,176.9c-0.2,0.2-0.5,0-0.7,0.3c-0.2,0.3,0.1,0.5-0.2,0.9c-0.1,0.1-0.2,0.2-0.1,0.4c0,0.1,0.1,0.1,0.1,0.2
	c0,0.1,0,0.2-0.1,0.4c-0.2,0.2-0.2,0.3-0.3,0.4c-0.2,0.3,0,0.6,0,0.9c-0.1,0.6-0.9,0.9-1,1c-0.9,0.4-1.4-0.5-2.3-0.2
	c-0.4,0.1-0.7,0.5-1.2,1.2c-0.6,0.8-0.5,1-0.8,1.4c-0.6,0.8-1.8,1.2-2.7,1.1c-0.3,0-1.6-0.1-2.4-1.1c-1.2-1.4,0.3-2.9-0.2-6
	c-0.3-1.9-1-1.8-1.2-3.5c-0.1-0.9-0.5-4.8,2.7-6.5c2.1-1.1,5-0.7,6.9,0.5c2.1,1.4,3,3.8,2.6,4.6c0,0.1-0.2,0.4-0.2,0.9
	c0,0.4,0.1,0.8,0.2,0.8c0.2,0.3,0.3,0.4,0.6,0.8C411.7,175.6,412.4,176.5,412.1,176.9z"/>
<line class="st0" x1="430.8" y1="167.1" x2="414.3" y2="202.7"/>
<path d="M429.3,176.2c-0.2,0-0.4,0-0.6,0c-1.9-0.2-3.2-1.4-3.7-1.8c-0.2-0.1-0.3-0.3-0.4-0.3c0-0.2,0.1-0.4,0.1-0.5
	c1.1-4.3,2.8-8.8,5.3-13.4c0.5-0.1,2-0.3,3.6,0.4c1.4,0.6,2.2,1.5,2.5,2c-1.7,5.4-4,9.8-6.6,13.4C429.6,176,429.5,176.1,429.3,176.2
	z"/>
<path d="M421.5,187.1c-2.2,0.4-4.7,1-7.3,1.9c-2.8,0.9-5.3,2-7.6,3c-0.3-2.4-0.7-4.7-1-7.1c2.5-0.4,5.1-0.7,7.9-0.9
	c3.3-0.2,6.3-0.2,9.1-0.1C422.3,185.1,421.9,186.1,421.5,187.1z"/>
<path d="M415.4,199.3c-3.3-0.5-6.5-1-9.8-1.5c-0.1-1.8-0.3-3.7-0.4-5.5c1.2,0.7,3.8,1.9,7.3,1.8c2.6,0,4.6-0.7,5.8-1.3
	C417.3,195,416.4,197.1,415.4,199.3z"/>
<path d="M414.2,173.1c-0.2,0.9-8,0-9.3-0.2c-2.6-0.3-9.4-1.2-9.4-2c0-0.5,2.6-0.2,4.7-2.4c0.9-1,0.8-1.4,1.6-2.1
	c1.4-1.1,3.1-1,4.4-0.8c1.4,0.2,3.1,0.3,3.9,1.7c0.6,1,0.1,1.6,0.6,2.8C411.7,172.4,414.3,172.6,414.2,173.1z"/>
<g id="JzwGZZ.tif">
	
		<image style="overflow:visible;" width="470" height="470" id="Layer_0_1_" xlink:href="55AC7881A9C1606C.png"  transform="matrix(9.336031e-03 0 0 9.336031e-03 241.9254 127.232)">
	</image>
</g>
<g id="JzwGZZ.tif_44_">
	
		<image style="overflow:visible;" width="470" height="470" id="Layer_0_47_" xlink:href="55AC7881A9C1606D.png"  transform="matrix(9.336031e-03 0 0 9.336031e-03 194.6432 85.3227)">
	</image>
</g>
<g id="JzwGZZ.tif_2_">
	
		<image style="overflow:visible;" width="470" height="470" id="Layer_0_3_" xlink:href="55AC7881A9C1606B.png"  transform="matrix(9.336031e-03 0 0 9.336031e-03 272.0141 56.3086)">
	</image>
</g>
<g id="JzwGZZ.tif_41_">
	
		<image style="overflow:visible;" width="470" height="470" id="Layer_0_44_" xlink:href="55AC7881A9C16074.png"  transform="matrix(9.336031e-03 0 0 9.336031e-03 244.0746 203.5283)">
	</image>
</g>
<g id="JzwGZZ.tif_20_">
	
		<image style="overflow:visible;" width="470" height="470" id="Layer_0_22_" xlink:href="55AC7881A9C16077.png"  transform="matrix(9.336031e-03 0 0 9.336031e-03 197.867 168.0666)">
	</image>
</g>
<g id="JzwGZZ.tif_38_">
	
		<image style="overflow:visible;" width="470" height="470" id="Layer_0_41_" xlink:href="55AC7881A9C16075.png"  transform="matrix(9.336031e-03 0 0 9.336031e-03 279.5363 160.5445)">
	</image>
</g>
<g id="JzwGZZ.tif_17_">
	
		<image style="overflow:visible;" width="470" height="470" id="Layer_0_19_" xlink:href="55AC7881A9C1607B.png"  transform="matrix(9.336031e-03 0 0 9.336031e-03 149.9579 201.8716)">
	</image>
</g>
<g id="JzwGZZ.tif_35_">
	
		<image style="overflow:visible;" width="470" height="470" id="Layer_0_38_" xlink:href="55AC7881A9C1607C.png"  transform="matrix(9.336031e-03 0 0 9.336031e-03 102.6757 159.9624)">
	</image>
</g>
<g id="JzwGZZ.tif_12_">
	
		<image style="overflow:visible;" width="470" height="470" id="Layer_0_14_" xlink:href="55AC7881A9C1607F.png"  transform="matrix(9.336031e-03 0 0 9.336031e-03 180.0466 130.9483)">
	</image>
</g>
<g id="JzwGZZ.tif_32_">
	
		<image style="overflow:visible;" width="470" height="470" id="Layer_0_35_" xlink:href="61ED6ABD88F2EFFB.png"  transform="matrix(9.336031e-03 0 0 9.336031e-03 133.839 95.4866)">
	</image>
</g>
<g id="JzwGZZ.tif_7_">
	
		<image style="overflow:visible;" width="470" height="470" id="Layer_0_8_" xlink:href="61ED6ABD88F2EFF9.png"  transform="matrix(9.336031e-03 0 0 9.336031e-03 353.6834 163.7682)">
	</image>
</g>
<g id="JzwGZZ.tif_29_">
	
		<image style="overflow:visible;" width="470" height="470" id="Layer_0_32_" xlink:href="61ED6ABD88F2EFFF.png"  transform="matrix(9.336031e-03 0 0 9.336031e-03 306.4012 121.859)">
	</image>
</g>
<g id="JzwGZZ.tif_5_">
	
		<image style="overflow:visible;" width="470" height="470" id="Layer_0_6_" xlink:href="61ED6ABD88F2EFFA.png"  transform="matrix(9.336031e-03 0 0 9.336031e-03 383.7721 92.8449)">
	</image>
</g>
<g id="JzwGZZ.tif_25_">
	
		<image style="overflow:visible;" width="470" height="470" id="Layer_0_29_" xlink:href="61ED6ABD88F2EFE5.png"  transform="matrix(9.336031e-03 0 0 9.336031e-03 337.5645 57.3832)">
	</image>
</g>
<g id="JzwGZZ.tif_15_">
	
		<image style="overflow:visible;" width="470" height="470" id="Layer_0_17_" xlink:href="61ED6ABD88F2EFE6.png"  transform="matrix(9.336031e-03 0 0 9.336031e-03 462.2177 158.3953)">
	</image>
</g>
<g id="JzwGZZ.tif_21_">
	
		<image style="overflow:visible;" width="470" height="470" id="Layer_0_24_" xlink:href="61ED6ABD88F2EFE7.png"  transform="matrix(9.336031e-03 0 0 9.336031e-03 414.9354 116.486)">
	</image>
</g>
<g id="JzwGZZ.tif_13_">
	
		<image style="overflow:visible;" width="470" height="470" id="Layer_0_15_" xlink:href="61ED6ABD88F2EFE9.png"  transform="matrix(9.336031e-03 0 0 9.336031e-03 492.3063 87.4719)">
	</image>
</g>
<g id="JzwGZZ.tif_16_">
	
		<image style="overflow:visible;" width="470" height="470" id="Layer_0_20_" xlink:href="61ED6ABD88F2EFEB.png"  transform="matrix(9.336031e-03 0 0 9.336031e-03 446.0987 52.0103)">
	</image>
</g>
<g id="JzwGZZ.tif_11_">
	
		<image style="overflow:visible;" width="470" height="470" id="Layer_0_13_" xlink:href="61ED6ABD88F2EFEE.png"  transform="matrix(9.336031e-03 0 0 9.336031e-03 573.9756 194.9315)">
	</image>
</g>
<g id="JzwGZZ.tif_9_">
	
		<image style="overflow:visible;" width="470" height="470" id="Layer_0_12_" xlink:href="61ED6ABD88F2F002.png"  transform="matrix(9.336031e-03 0 0 9.336031e-03 526.6934 153.0223)">
	</image>
</g>
<g id="JzwGZZ.tif_6_">
	
		<image style="overflow:visible;" width="470" height="470" id="Layer_0_11_" xlink:href="61ED6ABD88F2F001.png"  transform="matrix(9.336031e-03 0 0 9.336031e-03 604.0643 124.0082)">
	</image>
</g>
<g id="JzwGZZ.tif_1_">
	
		<image style="overflow:visible;" width="470" height="470" id="Layer_0_7_" xlink:href="61ED6ABD88F2F00E.png"  transform="matrix(9.336031e-03 0 0 9.336031e-03 557.8567 88.5465)">
	</image>
</g>
<g id="nYVTcJ.tif">
	
		<image style="overflow:visible;" width="302" height="302" id="Layer_0_4_" xlink:href="61ED6ABD88F2F000.png"  transform="matrix(0.121 0 0 0.121 232.6123 61.7712)">
	</image>
</g>
<rect x="282.5" y="241.9" class="st1" width="326" height="101.6"/>
<text transform="matrix(1 0 0 1 329.5015 264.5522)"><tspan x="0" y="0" class="st2 st3">PACIFIC PEAKS</tspan><tspan x="157.9" y="24.7" class="st2 st4 st5">APPAREL</tspan></text>
<rect x="102.7" y="241.9" width="218.5" height="7"/>
<rect x="102.7" y="253.7" width="218.5" height="7"/>
<rect x="102.7" y="265.5" width="218.5" height="7"/>
<rect x="102.7" y="277.8" width="375.5" height="1.5"/>
<rect x="102.7" y="283.8" width="375.5" height="1.5"/>
<rect x="102.7" y="289.9" width="375.5" height="1.5"/>
</svg>
